<?xml version="1.0" encoding="UTF-8"?>
<svg width="244px" height="208px" viewBox="0 0 244 208" version="1.1" xmlns="http://www.w3.org/2000/svg" xmlns:xlink="http://www.w3.org/1999/xlink">
    <!-- Generator: Sketch 55 (78076) - https://sketchapp.com -->
    <title>支付、钱包、卡包</title>
    <desc>Created with Sketch.</desc>
    <g id="Page-1" stroke="none" stroke-width="1" fill="none" fill-rule="evenodd">
        <g id="亮背景时使用" transform="translate(-544.000000, -1552.000000)">
            <g id="支付、钱包、卡包" transform="translate(544.000000, 1552.000000)">
                <g id="背景/彩">
                    <g id="-">
                        <g id="编组" transform="translate(28.400000, 18.400000)">
                            <polyline id="路径" stroke="#DEF5FF" stroke-width="40" stroke-linecap="round" stroke-linejoin="round" points="121.6 27.4476562 49.6 71.0238281 121.6 66.6 129.6 66.6 72.167827 114.6"></polyline>
                            <path d="M1.6,146.2 C0.7163444,146.2 -5.68434189e-14,145.483656 -5.68434189e-14,144.6 C-5.68434189e-14,143.716344 0.7163444,143 1.6,143 L141.6,143 C142.483656,143 143.2,143.716344 143.2,144.6 C143.2,145.483656 142.483656,146.2 141.6,146.2 L1.6,146.2 Z M149.6,146.2 C148.716344,146.2 148,145.483656 148,144.6 C148,143.716344 148.716344,143 149.6,143 L154.6,143 C155.483656,143 156.2,143.716344 156.2,144.6 C156.2,145.483656 155.483656,146.2 154.6,146.2 L149.6,146.2 Z M167.6,146.2 C166.716344,146.2 166,145.483656 166,144.6 C166,143.716344 166.716344,143 167.6,143 L185.6,143 C186.483656,143 187.2,143.716344 187.2,144.6 C187.2,145.483656 186.483656,146.2 185.6,146.2 L167.6,146.2 Z M47.6,161.2 C46.7163444,161.2 46,160.483656 46,159.6 C46,158.716344 46.7163444,158 47.6,158 L61.6,158 C62.4836556,158 63.2,158.716344 63.2,159.6 C63.2,160.483656 62.4836556,161.2 61.6,161.2 L47.6,161.2 Z M70.6,161.2 C69.7163444,161.2 69,160.483656 69,159.6 C69,158.716344 69.7163444,158 70.6,158 L131.6,158 C132.483656,158 133.2,158.716344 133.2,159.6 C133.2,160.483656 132.483656,161.2 131.6,161.2 L70.6,161.2 Z M160,105.6 C160,103.466667 163.2,103.466667 163.2,105.6 L163.2,111.6 C163.2,112.483656 162.483656,113.2 161.6,113.2 L155.6,113.2 C153.466667,113.2 153.466667,110 155.6,110 L160,110 L160,105.6 Z M163.2,117.6 C163.2,119.733333 160,119.733333 160,117.6 L160,111.6 C160,110.716344 160.716344,110 161.6,110 L167.6,110 C169.733333,110 169.733333,113.2 167.6,113.2 L163.2,113.2 L163.2,117.6 Z M8,57.6 C8,55.4666667 11.2,55.4666667 11.2,57.6 L11.2,63.6 C11.2,64.4836556 10.4836556,65.2 9.6,65.2 L3.6,65.2 C1.46666667,65.2 1.46666667,62 3.6,62 L8,62 L8,57.6 Z M156.2,7 L161.6,7 C163.733333,7 163.733333,10.2 161.6,10.2 L156.2,10.2 L156.2,15.6 C156.2,17.7333333 153,17.7333333 153,15.6 L153,10.2 L147.6,10.2 C145.466667,10.2 145.466667,7 147.6,7 L153,7 L153,1.6 C153,-0.533333333 156.2,-0.533333333 156.2,1.6 L156.2,7 Z M11.2,69.6 C11.2,71.7333333 8,71.7333333 8,69.6 L8,63.6 C8,62.7163444 8.7163444,62 9.6,62 L15.6,62 C17.7333333,62 17.7333333,65.2 15.6,65.2 L11.2,65.2 L11.2,69.6 Z" id="Path-2" fill="#333745" fill-rule="nonzero"></path>
                            <path d="M28.1857864,122.286292 C29.1285955,121.343482 30.542809,122.757696 29.6,123.700505 L27.4786797,125.821825 C27.0881554,126.21235 26.4549904,126.21235 26.0644661,125.821825 L23.9431458,123.700505 C23.0003367,122.757696 24.4145503,121.343482 25.3573593,122.286292 L26.7715729,123.700505 L28.1857864,122.286292 Z M25.3573593,127.943146 C24.4145503,128.885955 23.0003367,127.471741 23.9431458,126.528932 L26.0644661,124.407612 C26.4549904,124.017088 27.0881554,124.017088 27.4786797,124.407612 L29.6,126.528932 C30.542809,127.471741 29.1285955,128.885955 28.1857864,127.943146 L26.7715729,126.528932 L25.3573593,127.943146 Z M45.8426407,17.6 C46.7854497,16.657191 48.1996633,18.0714045 47.2568542,19.0142136 L45.1355339,21.1355339 C44.7450096,21.5260582 44.1118446,21.5260582 43.7213203,21.1355339 L41.6,19.0142136 C40.657191,18.0714045 42.0714045,16.657191 43.0142136,17.6 L44.4284271,19.0142136 L45.8426407,17.6 Z M43.0142136,23.2568542 C42.0714045,24.1996633 40.657191,22.7854497 41.6,21.8426407 L43.7213203,19.7213203 C44.1118446,19.3307961 44.7450096,19.3307961 45.1355339,19.7213203 L47.2568542,21.8426407 C48.1996633,22.7854497 46.7854497,24.1996633 45.8426407,23.2568542 L44.4284271,21.8426407 L43.0142136,23.2568542 Z" id="Path复制" fill="#657180" fill-rule="nonzero"></path>
                        </g>
                    </g>
                </g>
                <g id="编组-3" transform="translate(68.000000, 49.648232)">
                    <g id="编组" transform="translate(52.648232, 35.000000) rotate(-43.000000) translate(-52.648232, -35.000000) translate(22.648232, 16.000000)" stroke-width="3.2">
                        <path d="M4,0 L56,0 C58.209139,-4.05812251e-16 60,1.790861 60,4 L60,34 C60,36.209139 58.209139,38 56,38 L4,38 C1.790861,38 2.705415e-16,36.209139 0,34 L0,4 C-2.705415e-16,1.790861 1.790861,4.05812251e-16 4,0 Z" id="矩形复制" stroke="#333745" fill="#D0E639"></path>
                        <path d="M8,30 L28,30" id="路径-4" stroke="#C3CBD6" stroke-linecap="round" stroke-linejoin="round"></path>
                        <path d="M8,24 L16,24" id="路径-4复制" stroke="#C3CBD6" stroke-linecap="round" stroke-linejoin="round"></path>
                        <polygon id="路径-4复制-2" stroke="#333745" fill="#FFFFFF" stroke-linecap="round" stroke-linejoin="round" points="1.70530257e-13 10 60 10 60 18 3.83693077e-13 18"></polygon>
                    </g>
                    <path d="M16,24.3517677 L92,24.3517677 C95.3137085,24.3517677 98,27.0380592 98,30.3517677 L98,82.3517677 C98,85.6654762 95.3137085,88.3517677 92,88.3517677 L16,88.3517677 C12.6862915,88.3517677 10,85.6654762 10,82.3517677 L10,30.3517677 C10,27.0380592 12.6862915,24.3517677 16,24.3517677 Z" id="矩形" stroke="#333745" stroke-width="3.2" fill="#BC9471"></path>
                    <path d="M84,46.3517677 L100,46.3517677 C103.313708,46.3517677 106,49.0380592 106,52.3517677 L106,60.3517677 C106,63.6654762 103.313708,66.3517677 100,66.3517677 L84,66.3517677 C78.4771525,66.3517677 74,61.8746152 74,56.3517677 L74,56.3517677 C74,50.8289202 78.4771525,46.3517677 84,46.3517677 Z" id="矩形复制-2" stroke="#333745" stroke-width="3.2" fill="#BC9471"></path>
                    <circle id="椭圆形" fill="#FFDDBF" cx="86" cy="56.3517677" r="4"></circle>
                    <circle id="椭圆形" stroke="#333745" stroke-width="3.2" fill="#FFDB00" cx="24" cy="72.3517677" r="24"></circle>
                    <path d="M25.815827,56.4157677 L25.815827,60.2877677 C28.1198385,60.5224356 30.0611524,61.141096 31.639827,62.1437677 L29.271827,66.7517677 C27.9064868,65.7064292 26.5625003,65.1837677 25.239827,65.1837677 C24.4291563,65.1837677 23.7678295,65.3704325 23.255827,65.7437677 C22.7438244,66.1171029 22.487827,66.538432 22.487827,67.0077677 C22.487827,67.4344365 22.6904916,67.8397658 23.095827,68.2237677 C23.5011623,68.6077696 24.0344903,68.9170999 24.695827,69.1517677 L26.583827,69.7917677 C28.6958375,70.5171047 30.2211556,71.4077624 31.159827,72.4637677 C32.0984983,73.519773 32.567827,74.890426 32.567827,76.5757677 C32.567827,77.5997728 32.4504948,78.5064304 32.215827,79.2957677 C31.9811591,80.085105 31.597163,80.789098 31.063827,81.4077677 C30.530491,82.0264375 29.8318313,82.570432 28.967827,83.0397677 C28.1038227,83.5091034 27.0531665,83.9357658 25.815827,84.3197677 L25.815827,88.2877677 L22.871827,88.2877677 L22.871827,84.4797677 C22.2104903,84.4797677 21.5064974,84.3997685 20.759827,84.2397677 C20.0131566,84.0797669 19.2771639,83.8664357 18.551827,83.5997677 C17.82649,83.3330997 17.1491635,83.0237695 16.519827,82.6717677 C15.8904905,82.319766 15.3731623,81.9517696 14.967827,81.5677677 L17.559827,76.7357677 C19.5651703,78.5064432 21.5171508,79.3917677 23.415827,79.3917677 C24.2051643,79.3917677 24.8931574,79.1784365 25.479827,78.7517677 C26.0664966,78.3250989 26.359827,77.7704378 26.359827,77.0877677 C26.359827,76.1490964 25.6665006,75.45577 24.279827,75.0077677 L22.455827,74.4317677 C21.3678215,74.0904327 20.4398308,73.7171031 19.671827,73.3117677 C18.9038231,72.9064324 18.2744961,72.4371037 17.783827,71.9037677 C17.2931579,71.3704317 16.9304948,70.7677711 16.695827,70.0957677 C16.4611591,69.4237644 16.343827,68.6504388 16.343827,67.7757677 C16.343827,66.8584298 16.477159,65.9731053 16.743827,65.1197677 C17.010495,64.2664301 17.4158243,63.5037711 17.959827,62.8317677 C18.5038297,62.1597644 19.1811563,61.5944367 19.991827,61.1357677 C20.8024977,60.6770988 21.7624881,60.3944349 22.871827,60.2877677 L22.871827,56.4157677 L25.815827,56.4157677 Z" id="$" fill="#333745" fill-rule="nonzero"></path>
                </g>
            </g>
        </g>
    </g>
</svg>