<?xml version="1.0" standalone="no"?><!DOCTYPE svg PUBLIC "-//W3C//DTD SVG 1.1//EN" "http://www.w3.org/Graphics/SVG/1.1/DTD/svg11.dtd"><svg t="1598970284557" class="icon" viewBox="0 0 1024 1024" version="1.1" xmlns="http://www.w3.org/2000/svg" p-id="2852" xmlns:xlink="http://www.w3.org/1999/xlink" width="32" height="32"><defs><style type="text/css"></style></defs><path d="M849.170732 0c97.404878 0 174.829268 77.42439 174.829268 174.829268v674.341464c0 97.404878-77.42439 174.829268-174.829268 174.829268H174.829268c-97.404878 0-174.829268-77.42439-174.829268-174.829268V174.829268c0-97.404878 77.42439-174.829268 174.829268-174.829268h674.341464z m-157.346342 312.195122c-7.492683-7.492683-17.482927-7.492683-27.47317-7.492683l-64.936586 9.990244c-4.995122 0-9.990244 2.497561-14.985366 4.995122-4.995122 2.497561-7.492683 4.995122-9.990244 9.990244-2.497561 4.995122-4.995122 7.492683-4.995122 12.487805s-2.497561 9.990244 0 14.985366L621.892683 699.317073c2.497561 9.990244 7.492683 19.980488 14.985366 24.97561 7.492683 4.995122 17.482927 7.492683 27.473171 7.492683l62.439024-9.990244c9.990244-2.497561 19.980488-7.492683 24.97561-14.985366 4.995122-7.492683 7.492683-17.482927 7.492683-27.473171l-54.946342-342.165853c0-12.487805-4.995122-19.980488-12.487805-24.97561z m-197.307317-9.990244h-59.941463c-9.990244 0-19.980488 2.497561-24.97561 9.990244-4.995122 7.492683-7.492683 17.482927-7.492683 27.473171v354.653658c0 9.990244 2.497561 19.980488 9.990244 27.473171 7.492683 7.492683 17.482927 9.990244 27.473171 9.990244h54.946341c9.990244 0 19.980488-2.497561 27.473171-9.990244 7.492683-7.492683 9.990244-17.482927 9.990244-27.473171V339.668293c0-9.990244-2.497561-19.980488-9.990244-27.473171-7.492683-7.492683-17.482927-9.990244-27.473171-9.990244z m-167.336585 0h-54.946342c-9.990244 0-19.980488 2.497561-27.47317 9.990244-7.492683 7.492683-12.487805 17.482927-12.487805 27.473171v354.653658c0 9.990244 4.995122 19.980488 12.487805 27.473171 7.492683 7.492683 17.482927 9.990244 27.47317 9.990244h54.946342c9.990244 0 19.980488-2.497561 27.473171-9.990244 7.492683-7.492683 12.487805-17.482927 12.487804-27.473171V339.668293c0-9.990244-4.995122-19.980488-12.487804-27.473171-7.492683-7.492683-14.985366-9.990244-27.473171-9.990244z m0 264.741463c4.995122 0 7.492683 2.497561 9.990244 4.995122 2.497561 2.497561 2.497561 7.492683 2.497561 12.487805s0 7.492683-2.497561 12.487805c-2.497561 2.497561-4.995122 4.995122-9.990244 4.995122H274.731707c-4.995122 0-7.492683-2.497561-9.990244-4.995122-2.497561-2.497561-2.497561-7.492683-2.497561-12.487805s0-9.990244 2.497561-12.487805c2.497561-2.497561 4.995122-4.995122 9.990244-4.995122h52.448781z m167.336585-32.468292c2.497561 0 7.492683 2.497561 9.990244 4.995122 2.497561 2.497561 2.497561 7.492683 2.497561 12.487805s0 7.492683-2.497561 12.487804c-2.497561 2.497561-4.995122 4.995122-9.990244 4.995122h-54.946341c-2.497561 0-7.492683-2.497561-9.990244-4.995122-2.497561-2.497561-2.497561-7.492683-2.497561-12.487804s0-9.990244 2.497561-12.487805c2.497561-2.497561 4.995122-4.995122 9.990244-4.995122h54.946341z m-167.336585-32.468293c4.995122 0 7.492683 2.497561 9.990244 4.995122 2.497561 2.497561 2.497561 7.492683 2.497561 12.487805s0 9.990244-2.497561 12.487805c-2.497561 2.497561-4.995122 4.995122-9.990244 4.995122H274.731707c-4.995122 0-7.492683-2.497561-9.990244-4.995122-2.497561-2.497561-2.497561-7.492683-2.497561-12.487805s0-9.990244 2.497561-12.487805c2.497561-2.497561 4.995122-4.995122 9.990244-4.995122h52.448781z m167.336585-34.965854c2.497561 0 7.492683 2.497561 9.990244 4.995122 2.497561 2.497561 2.497561 7.492683 2.497561 12.487805s0 9.990244-2.497561 12.487805c-2.497561 2.497561-4.995122 4.995122-9.990244 4.995122h-54.946341c-2.497561 0-7.492683-2.497561-9.990244-4.995122-2.497561-2.497561-2.497561-7.492683-2.497561-12.487805s0-9.990244 2.497561-12.487805c2.497561-2.497561 4.995122-4.995122 9.990244-4.995122h54.946341zM324.682927 434.57561c4.995122 0 7.492683 2.497561 9.990244 4.995122 2.497561 2.497561 2.497561 7.492683 2.497561 12.487805s0 7.492683-2.497561 12.487804c-2.497561 2.497561-4.995122 4.995122-9.990244 4.995122h-49.95122c-4.995122 0-7.492683-2.497561-9.990244-4.995122-2.497561-2.497561-2.497561-7.492683-2.497561-12.487804s0-9.990244 2.497561-12.487805c2.497561-2.497561 4.995122-4.995122 9.990244-4.995122h49.95122z" fill="#38B781" p-id="2853"></path></svg>