<?xml version="1.0" standalone="no"?><!DOCTYPE svg PUBLIC "-//W3C//DTD SVG 1.1//EN" "http://www.w3.org/Graphics/SVG/1.1/DTD/svg11.dtd"><svg t="1599051714977" class="icon" viewBox="0 0 1024 1024" version="1.1" xmlns="http://www.w3.org/2000/svg" p-id="6883" width="256" height="256" xmlns:xlink="http://www.w3.org/1999/xlink"><defs><style type="text/css"></style></defs><path d="M281.862709 132.641h459.992187v146.386916H281.862709zM448.230801 762.40233L306.520331 598.159895a25.082753 25.082753 0 1 1 37.978406-32.593408l106.849695 124.421793L687.012944 467.644552a25.082753 25.082753 0 1 1 34.293934 36.419591z" fill="#55CEC7" p-id="6884"></path><path d="M822.771574 107.699957H623.243232a58.951556 58.951556 0 0 0 7.794076-28.342094c0-45.489061-51.29919-79.357863-119.178506-79.357863s-119.178506 33.868802-119.178505 78.791021a58.951556 58.951556 0 0 0 7.794076 28.342095H200.946031A78.791021 78.791021 0 0 0 122.29672 186.349268v759.001279a78.791021 78.791021 0 0 0 78.649311 78.649311h621.825543A78.791021 78.791021 0 0 0 901.704306 945.350547V186.349268a78.791021 78.791021 0 0 0-78.932732-78.649311z m-380.067481-28.342094c0-10.061443 26.216437-28.342094 69.154709-28.342094s69.154709 18.705782 69.15471 28.342094-26.216437 28.342094-69.15471 28.342094-69.154709-18.705782-69.154709-28.908936z m408.692996 865.992684a28.342094 28.342094 0 0 1-28.342094 28.342094H200.946031a28.342094 28.342094 0 0 1-28.342094-28.342094V186.349268a28.342094 28.342094 0 0 1 28.342094-28.342094h621.825543a28.342094 28.342094 0 0 1 28.342094 28.342094z" fill="#094EB9" p-id="6885"></path></svg>