<?xml version="1.0" standalone="no"?><!DOCTYPE svg PUBLIC "-//W3C//DTD SVG 1.1//EN" "http://www.w3.org/Graphics/SVG/1.1/DTD/svg11.dtd"><svg t="1598970762265" class="icon" viewBox="0 0 1024 1024" version="1.1" xmlns="http://www.w3.org/2000/svg" p-id="8505" xmlns:xlink="http://www.w3.org/1999/xlink" width="32" height="32"><defs><style type="text/css"></style></defs><path d="M876.407224 954.162564H185.412484a46.694369 46.694369 0 0 1-46.899168-46.557836c0-25.66825 21.026119-46.489569 46.899168-46.489569h491.929272V0H138.513316C99.737875 0 68.266962 31.266112 68.266962 69.836753v837.767975A116.735922 116.735922 0 0 0 185.412484 1023.999317h690.99474a35.020777 35.020777 0 0 0 35.15731-34.884243 35.020777 35.020777 0 0 0-35.15731-34.95251z" fill="#38b781" p-id="8506"></path><path d="M834.081919 0H730.862787v843.297571h103.219132c42.803171 0 77.482615-30.651713 77.482615-68.403154V68.334888C911.564534 30.651713 876.88509 0 834.081919 0z" fill="#38b781" p-id="8507"></path></svg>