<?xml version="1.0" encoding="UTF-8"?>
<svg width="244px" height="208px" viewBox="0 0 244 208" version="1.1" xmlns="http://www.w3.org/2000/svg" xmlns:xlink="http://www.w3.org/1999/xlink">
    <!-- Generator: Sketch 55 (78076) - https://sketchapp.com -->
    <title>暂无权限、访问受限、锁屏</title>
    <desc>Created with Sketch.</desc>
    <g id="Page-1" stroke="none" stroke-width="1" fill="none" fill-rule="evenodd">
        <g id="亮背景时使用" transform="translate(-40.000000, -688.000000)">
            <g id="暂无权限、访问受限、锁屏" transform="translate(40.000000, 688.000000)">
                <g id="背景/彩">
                    <g id="-">
                        <g id="编组" transform="translate(28.400000, 18.400000)">
                            <polyline id="路径" stroke="#DEF5FF" stroke-width="40" stroke-linecap="round" stroke-linejoin="round" points="121.6 27.4476562 49.6 71.0238281 121.6 66.6 129.6 66.6 72.167827 114.6"></polyline>
                            <path d="M1.6,146.2 C0.7163444,146.2 -5.68434189e-14,145.483656 -5.68434189e-14,144.6 C-5.68434189e-14,143.716344 0.7163444,143 1.6,143 L141.6,143 C142.483656,143 143.2,143.716344 143.2,144.6 C143.2,145.483656 142.483656,146.2 141.6,146.2 L1.6,146.2 Z M149.6,146.2 C148.716344,146.2 148,145.483656 148,144.6 C148,143.716344 148.716344,143 149.6,143 L154.6,143 C155.483656,143 156.2,143.716344 156.2,144.6 C156.2,145.483656 155.483656,146.2 154.6,146.2 L149.6,146.2 Z M167.6,146.2 C166.716344,146.2 166,145.483656 166,144.6 C166,143.716344 166.716344,143 167.6,143 L185.6,143 C186.483656,143 187.2,143.716344 187.2,144.6 C187.2,145.483656 186.483656,146.2 185.6,146.2 L167.6,146.2 Z M47.6,161.2 C46.7163444,161.2 46,160.483656 46,159.6 C46,158.716344 46.7163444,158 47.6,158 L61.6,158 C62.4836556,158 63.2,158.716344 63.2,159.6 C63.2,160.483656 62.4836556,161.2 61.6,161.2 L47.6,161.2 Z M70.6,161.2 C69.7163444,161.2 69,160.483656 69,159.6 C69,158.716344 69.7163444,158 70.6,158 L131.6,158 C132.483656,158 133.2,158.716344 133.2,159.6 C133.2,160.483656 132.483656,161.2 131.6,161.2 L70.6,161.2 Z M160,105.6 C160,103.466667 163.2,103.466667 163.2,105.6 L163.2,111.6 C163.2,112.483656 162.483656,113.2 161.6,113.2 L155.6,113.2 C153.466667,113.2 153.466667,110 155.6,110 L160,110 L160,105.6 Z M163.2,117.6 C163.2,119.733333 160,119.733333 160,117.6 L160,111.6 C160,110.716344 160.716344,110 161.6,110 L167.6,110 C169.733333,110 169.733333,113.2 167.6,113.2 L163.2,113.2 L163.2,117.6 Z M8,57.6 C8,55.4666667 11.2,55.4666667 11.2,57.6 L11.2,63.6 C11.2,64.4836556 10.4836556,65.2 9.6,65.2 L3.6,65.2 C1.46666667,65.2 1.46666667,62 3.6,62 L8,62 L8,57.6 Z M156.2,7 L161.6,7 C163.733333,7 163.733333,10.2 161.6,10.2 L156.2,10.2 L156.2,15.6 C156.2,17.7333333 153,17.7333333 153,15.6 L153,10.2 L147.6,10.2 C145.466667,10.2 145.466667,7 147.6,7 L153,7 L153,1.6 C153,-0.533333333 156.2,-0.533333333 156.2,1.6 L156.2,7 Z M11.2,69.6 C11.2,71.7333333 8,71.7333333 8,69.6 L8,63.6 C8,62.7163444 8.7163444,62 9.6,62 L15.6,62 C17.7333333,62 17.7333333,65.2 15.6,65.2 L11.2,65.2 L11.2,69.6 Z" id="Path-2" fill="#333745" fill-rule="nonzero"></path>
                            <path d="M28.1857864,122.286292 C29.1285955,121.343482 30.542809,122.757696 29.6,123.700505 L27.4786797,125.821825 C27.0881554,126.21235 26.4549904,126.21235 26.0644661,125.821825 L23.9431458,123.700505 C23.0003367,122.757696 24.4145503,121.343482 25.3573593,122.286292 L26.7715729,123.700505 L28.1857864,122.286292 Z M25.3573593,127.943146 C24.4145503,128.885955 23.0003367,127.471741 23.9431458,126.528932 L26.0644661,124.407612 C26.4549904,124.017088 27.0881554,124.017088 27.4786797,124.407612 L29.6,126.528932 C30.542809,127.471741 29.1285955,128.885955 28.1857864,127.943146 L26.7715729,126.528932 L25.3573593,127.943146 Z M45.8426407,17.6 C46.7854497,16.657191 48.1996633,18.0714045 47.2568542,19.0142136 L45.1355339,21.1355339 C44.7450096,21.5260582 44.1118446,21.5260582 43.7213203,21.1355339 L41.6,19.0142136 C40.657191,18.0714045 42.0714045,16.657191 43.0142136,17.6 L44.4284271,19.0142136 L45.8426407,17.6 Z M43.0142136,23.2568542 C42.0714045,24.1996633 40.657191,22.7854497 41.6,21.8426407 L43.7213203,19.7213203 C44.1118446,19.3307961 44.7450096,19.3307961 45.1355339,19.7213203 L47.2568542,21.8426407 C48.1996633,22.7854497 46.7854497,24.1996633 45.8426407,23.2568542 L44.4284271,21.8426407 L43.0142136,23.2568542 Z" id="Path复制" fill="#657180" fill-rule="nonzero"></path>
                        </g>
                    </g>
                </g>
                <g id="分组" transform="translate(70.000000, 66.000000)">
                    <path d="M4,0 L100,0 C102.209139,-4.05812251e-16 104,1.790861 104,4 L104,72 C104,74.209139 102.209139,76 100,76 L4,76 C1.790861,76 2.705415e-16,74.209139 0,72 L0,4 C-2.705415e-16,1.790861 1.790861,4.05812251e-16 4,0 Z" id="矩形" stroke="#333745" stroke-width="3.2" fill="#FFFFFF" stroke-linecap="round" stroke-linejoin="round"></path>
                    <g id="Group-7" transform="translate(38.000000, 32.000000)">
                        <path d="M22.6153846,14 L22.6153846,4.30769231 C22.6153846,1.92876923 20.6866154,0 18.3076923,0 L9.69230769,0 C7.31338462,0 5.38461538,1.92876923 5.38461538,4.30769231 L5.38461538,14" id="Stroke-3" stroke="#333745" stroke-width="3.26666667" stroke-linecap="round" stroke-linejoin="round"></path>
                        <path d="M25.8461538,14 L2.15384615,14 C0.964923077,14 0,14.9649231 0,16.1538462 L0,25.8461538 C0,27.0350769 0.964923077,28 2.15384615,28 L25.8461538,28 C27.0350769,28 28,27.0350769 28,25.8461538 L28,16.1538462 C28,14.9649231 27.0350769,14 25.8461538,14 Z" id="Stroke-1" stroke="#333745" stroke-width="2.33333333" fill="#C3CAD7" stroke-linecap="round" stroke-linejoin="round"></path>
                        <path d="M13.6941963,20.3 L14.3058037,20.3 C14.6373767,20.3 14.9234643,20.5326285 14.99109,20.857232 L15.5744233,23.657232 C15.6532719,24.0357052 15.4103782,24.4064377 15.031905,24.4852863 C14.9849455,24.4950695 14.9371048,24.5 14.889137,24.5 L13.110863,24.5 C12.7242636,24.5 12.410863,24.1865993 12.410863,23.8 C12.410863,23.7520322 12.4157934,23.7041915 12.4255767,23.657232 L13.00891,20.857232 C13.0765357,20.5326285 13.3626233,20.3 13.6941963,20.3 Z" id="Path" fill="#333745"></path>
                    </g>
                    <path d="M4,0 L100,0 C102.209139,-4.05812251e-16 104,1.790861 104,4 L104,14 L0,14 L0,4 C-2.705415e-16,1.790861 1.790861,4.05812251e-16 4,0 Z" id="矩形-copy" stroke="#333745" stroke-width="3.2" fill="#FFC107" stroke-linecap="round" stroke-linejoin="round"></path>
                    <circle id="椭圆形" fill="#333745" cx="21" cy="7" r="3"></circle>
                    <path d="M8.99682617,6.08666992 L8.99682617,4.08666992 C8.99682617,3.53438517 9.44454142,3.08666992 9.99682617,3.08666992 C10.5491109,3.08666992 10.9968262,3.53438517 10.9968262,4.08666992 L10.9968262,6.08666992 L12.9968262,6.08666992 C13.5491109,6.08666992 13.9968262,6.53438517 13.9968262,7.08666992 C13.9968262,7.63895467 13.5491109,8.08666992 12.9968262,8.08666992 L10.9968262,8.08666992 L10.9968262,10.0866699 C10.9968262,10.6389547 10.5491109,11.0866699 9.99682617,11.0866699 C9.44454142,11.0866699 8.99682617,10.6389547 8.99682617,10.0866699 L8.99682617,8.08666992 L6.99682617,8.08666992 C6.44454142,8.08666992 5.99682617,7.63895467 5.99682617,7.08666992 C5.99682617,6.53438517 6.44454142,6.08666992 6.99682617,6.08666992 L8.99682617,6.08666992 Z" id="路径" fill="#333745" fill-rule="nonzero" transform="translate(9.996826, 7.086670) rotate(-45.000000) translate(-9.996826, -7.086670) "></path>
                </g>
            </g>
        </g>
    </g>
</svg>