<?xml version="1.0" encoding="UTF-8"?>
<svg width="244px" height="208px" viewBox="0 0 244 208" version="1.1" xmlns="http://www.w3.org/2000/svg" xmlns:xlink="http://www.w3.org/1999/xlink">
    <!-- Generator: Sketch 55 (78076) - https://sketchapp.com -->
    <title>暂无收藏、收藏夹</title>
    <desc>Created with Sketch.</desc>
    <g id="Page-1" stroke="none" stroke-width="1" fill="none" fill-rule="evenodd">
        <g id="亮背景时使用" transform="translate(-544.000000, -1120.000000)">
            <g id="暂无收藏、收藏夹" transform="translate(544.000000, 1120.000000)">
                <g id="背景/彩">
                    <g id="-">
                        <g id="编组" transform="translate(28.400000, 18.400000)">
                            <polyline id="路径" stroke="#DEF5FF" stroke-width="40" stroke-linecap="round" stroke-linejoin="round" points="121.6 27.4476562 49.6 71.0238281 121.6 66.6 129.6 66.6 72.167827 114.6"></polyline>
                            <path d="M1.6,146.2 C0.7163444,146.2 -5.68434189e-14,145.483656 -5.68434189e-14,144.6 C-5.68434189e-14,143.716344 0.7163444,143 1.6,143 L141.6,143 C142.483656,143 143.2,143.716344 143.2,144.6 C143.2,145.483656 142.483656,146.2 141.6,146.2 L1.6,146.2 Z M149.6,146.2 C148.716344,146.2 148,145.483656 148,144.6 C148,143.716344 148.716344,143 149.6,143 L154.6,143 C155.483656,143 156.2,143.716344 156.2,144.6 C156.2,145.483656 155.483656,146.2 154.6,146.2 L149.6,146.2 Z M167.6,146.2 C166.716344,146.2 166,145.483656 166,144.6 C166,143.716344 166.716344,143 167.6,143 L185.6,143 C186.483656,143 187.2,143.716344 187.2,144.6 C187.2,145.483656 186.483656,146.2 185.6,146.2 L167.6,146.2 Z M47.6,161.2 C46.7163444,161.2 46,160.483656 46,159.6 C46,158.716344 46.7163444,158 47.6,158 L61.6,158 C62.4836556,158 63.2,158.716344 63.2,159.6 C63.2,160.483656 62.4836556,161.2 61.6,161.2 L47.6,161.2 Z M70.6,161.2 C69.7163444,161.2 69,160.483656 69,159.6 C69,158.716344 69.7163444,158 70.6,158 L131.6,158 C132.483656,158 133.2,158.716344 133.2,159.6 C133.2,160.483656 132.483656,161.2 131.6,161.2 L70.6,161.2 Z M160,105.6 C160,103.466667 163.2,103.466667 163.2,105.6 L163.2,111.6 C163.2,112.483656 162.483656,113.2 161.6,113.2 L155.6,113.2 C153.466667,113.2 153.466667,110 155.6,110 L160,110 L160,105.6 Z M163.2,117.6 C163.2,119.733333 160,119.733333 160,117.6 L160,111.6 C160,110.716344 160.716344,110 161.6,110 L167.6,110 C169.733333,110 169.733333,113.2 167.6,113.2 L163.2,113.2 L163.2,117.6 Z M8,57.6 C8,55.4666667 11.2,55.4666667 11.2,57.6 L11.2,63.6 C11.2,64.4836556 10.4836556,65.2 9.6,65.2 L3.6,65.2 C1.46666667,65.2 1.46666667,62 3.6,62 L8,62 L8,57.6 Z M156.2,7 L161.6,7 C163.733333,7 163.733333,10.2 161.6,10.2 L156.2,10.2 L156.2,15.6 C156.2,17.7333333 153,17.7333333 153,15.6 L153,10.2 L147.6,10.2 C145.466667,10.2 145.466667,7 147.6,7 L153,7 L153,1.6 C153,-0.533333333 156.2,-0.533333333 156.2,1.6 L156.2,7 Z M11.2,69.6 C11.2,71.7333333 8,71.7333333 8,69.6 L8,63.6 C8,62.7163444 8.7163444,62 9.6,62 L15.6,62 C17.7333333,62 17.7333333,65.2 15.6,65.2 L11.2,65.2 L11.2,69.6 Z" id="Path-2" fill="#333745" fill-rule="nonzero"></path>
                            <path d="M28.1857864,122.286292 C29.1285955,121.343482 30.542809,122.757696 29.6,123.700505 L27.4786797,125.821825 C27.0881554,126.21235 26.4549904,126.21235 26.0644661,125.821825 L23.9431458,123.700505 C23.0003367,122.757696 24.4145503,121.343482 25.3573593,122.286292 L26.7715729,123.700505 L28.1857864,122.286292 Z M25.3573593,127.943146 C24.4145503,128.885955 23.0003367,127.471741 23.9431458,126.528932 L26.0644661,124.407612 C26.4549904,124.017088 27.0881554,124.017088 27.4786797,124.407612 L29.6,126.528932 C30.542809,127.471741 29.1285955,128.885955 28.1857864,127.943146 L26.7715729,126.528932 L25.3573593,127.943146 Z M45.8426407,17.6 C46.7854497,16.657191 48.1996633,18.0714045 47.2568542,19.0142136 L45.1355339,21.1355339 C44.7450096,21.5260582 44.1118446,21.5260582 43.7213203,21.1355339 L41.6,19.0142136 C40.657191,18.0714045 42.0714045,16.657191 43.0142136,17.6 L44.4284271,19.0142136 L45.8426407,17.6 Z M43.0142136,23.2568542 C42.0714045,24.1996633 40.657191,22.7854497 41.6,21.8426407 L43.7213203,19.7213203 C44.1118446,19.3307961 44.7450096,19.3307961 45.1355339,19.7213203 L47.2568542,21.8426407 C48.1996633,22.7854497 46.7854497,24.1996633 45.8426407,23.2568542 L44.4284271,21.8426407 L43.0142136,23.2568542 Z" id="Path复制" fill="#657180" fill-rule="nonzero"></path>
                        </g>
                    </g>
                </g>
                <g id="分组" transform="translate(37.936470, 40.521214)" stroke="#333745" stroke-linecap="round" stroke-linejoin="round">
                    <path d="M61.2079532,90.4678658 L49.3053687,96.7254249 C45.3000704,98.8311348 40.3461194,97.2912142 38.2404095,93.2859159 C37.4019047,91.6909851 37.1125576,89.8641188 37.4171622,88.0881373 L39.6903536,74.8344146 C40.0241812,72.8880502 39.3788903,70.902049 37.9647738,69.5236261 L28.3353806,60.1372876 C25.0950262,56.9787227 25.0287228,51.7913737 28.1872877,48.5510193 C29.4450448,47.2606932 31.0930846,46.4209749 32.8762714,46.1618627 L46.1837655,44.2281706 C48.1380265,43.9441999 49.82742,42.7167837 50.7013921,40.9459228 L56.6526843,28.8872876 C58.6553335,24.8294772 63.5683067,23.1634398 67.6261171,25.166089 C69.2419584,25.9635544 70.5498503,27.2714462 71.3473157,28.8872876 L77.2986079,40.9459228 C78.17258,42.7167837 79.8619735,43.9441999 81.8162345,44.2281706 L95.1237286,46.1618627 C99.6017882,46.8125629 102.704476,50.9702442 102.053776,55.4483038 C101.794664,57.2314906 100.954945,58.8795305 99.6646194,60.1372876 L90.0352262,69.5236261 C88.6211097,70.902049 87.9758188,72.8880502 88.3096464,74.8344146 L90.5828378,88.0881373 C91.3477817,92.5481025 88.3523751,96.7837282 83.8924099,97.5486721 C82.1164283,97.8532768 80.2895621,97.5639296 78.6946313,96.7254249 L66.7920468,90.4678658 C65.0441026,89.5489172 62.9558974,89.5489172 61.2079532,90.4678658 Z" id="星形" stroke-width="3.2" fill="#D0E639" transform="translate(64.000000, 64.000000) rotate(-17.000000) translate(-64.000000, -64.000000) "></path>
                    <path d="M100.137554,99.3127228 L92.6433585,103.252654 C89.8396497,104.726651 86.371884,103.648707 84.897887,100.844998 C84.3109337,99.7285465 84.1083907,98.4497402 84.321614,97.2065531 L85.7528779,88.8616441 C86.0867055,86.9152797 85.4414146,84.9292785 84.0272981,83.5508556 L77.9643668,77.6409583 C75.6961188,75.4299629 75.6497063,71.7988185 77.8607017,69.5305705 C78.7411317,68.6273422 79.8947596,68.0395394 81.1429904,67.8581609 L89.5217553,66.6406551 C91.4760163,66.3566843 93.1654098,65.1292681 94.0393819,63.3584072 L97.7864794,55.7659583 C99.1883338,52.925491 102.627415,51.7592649 105.467882,53.1611193 C106.598971,53.719345 107.514496,54.6348693 108.072721,55.7659583 L111.819819,63.3584072 C112.693791,65.1292681 114.383185,66.3566843 116.337445,66.6406551 L124.71621,67.8581609 C127.850852,68.313651 130.022734,71.2240279 129.567244,74.3586696 C129.385865,75.6069004 128.798062,76.7605283 127.894834,77.6409583 L121.831903,83.5508556 C120.417786,84.9292785 119.772495,86.9152797 120.106323,88.8616441 L121.537587,97.2065531 C122.073048,100.328529 119.976263,103.293467 116.854287,103.828927 C115.6111,104.042151 114.332294,103.839608 113.215842,103.252654 L105.721647,99.3127228 C103.973703,98.3937742 101.885498,98.3937742 100.137554,99.3127228 Z" id="星形-copy" stroke-width="3.2" fill="#FFDB00" transform="translate(102.929600, 80.344857) rotate(-345.000000) translate(-102.929600, -80.344857) "></path>
                    <path d="M76.7667195,54.9234761 C74.8021276,50.9750339 70.726224,48.2619896 66.0166549,48.2619896" id="形状" stroke-width="4" transform="translate(71.391687, 51.592733) rotate(364.000000) translate(-71.391687, -51.592733) "></path>
                </g>
            </g>
        </g>
    </g>
</svg>