<?xml version="1.0" standalone="no"?><!DOCTYPE svg PUBLIC "-//W3C//DTD SVG 1.1//EN" "http://www.w3.org/Graphics/SVG/1.1/DTD/svg11.dtd"><svg t="1598883946406" class="icon" viewBox="0 0 1024 1024" version="1.1" xmlns="http://www.w3.org/2000/svg" p-id="10419" xmlns:xlink="http://www.w3.org/1999/xlink" width="32" height="32"><defs><style type="text/css"></style></defs><path d="M186.24 0h651.52Q1024 0 1024 186.24v651.52Q1024 1024 837.76 1024H186.24Q0 1024 0 837.76V186.24Q0 0 186.24 0z" fill="#FF7F65" p-id="10420"></path><path d="M429.76 274.24a16.32 16.32 0 0 1 15.04 13.76v160a16 16 0 0 1-15.04 15.04h-160a16 16 0 0 1-13.76-12.48V288a16.32 16.32 0 0 1 15.04-15.04z m0-45.12h-160A58.56 58.56 0 0 0 213.44 288v160a58.24 58.24 0 0 0 56 64h160a58.24 58.24 0 0 0 56-60.16V288a56.32 56.32 0 0 0-56-60.16z m0 345.28a16 16 0 0 1 15.04 15.04v160a16.32 16.32 0 0 1-15.04 15.04h-160a16.32 16.32 0 0 1-13.76-13.76v-160a16 16 0 0 1 13.44-14.72z m7.36 235.84a59.2 59.2 0 0 0 48.64-59.52v-160a79.36 79.36 0 0 0-14.72-41.28 56.64 56.64 0 0 0-41.28-15.04h-160a56.64 56.64 0 0 0-41.28 15.04 79.36 79.36 0 0 0-14.72 41.28v160a58.24 58.24 0 0 0 56 59.84h167.68m291.2-234.56a16 16 0 0 1 14.72 15.04v160a16 16 0 0 1-14.72 15.04h-160a16.32 16.32 0 0 1-15.04-15.04v-160a16.32 16.32 0 0 1 15.04-15.04z m0-41.28h-160a55.68 55.68 0 0 0-40.96 15.04 56.64 56.64 0 0 0-15.68 39.68v160a56 56 0 0 0 56 59.84h160a58.56 58.56 0 0 0 56-59.84v-160a79.68 79.68 0 0 0-15.04-41.28 56.32 56.32 0 0 0-40.32-15.04zM795.84 323.84L704 231.68a55.36 55.36 0 0 0-82.24 0l-93.12 92.16a73.92 73.92 0 0 0-16.64 40.32 75.84 75.84 0 0 0 15.04 40.64l93.12 92.16a54.72 54.72 0 0 0 78.4 0l93.44-92.16a59.2 59.2 0 0 0 18.56-40.64 76.16 76.16 0 0 0-14.72-40.32z m-33.6 47.68l-93.44 92.16a10.56 10.56 0 0 1-18.56 0l-93.44-92.16a13.76 13.76 0 0 1 0-22.08l93.44-91.84a13.12 13.12 0 0 1 11.2-3.84 13.76 13.76 0 0 1 11.2 3.84l93.12 91.84c3.84 7.36 3.84 18.56-3.52 22.08z" fill="#FFFFFF" p-id="10421"></path></svg>