<?xml version="1.0" standalone="no"?><!DOCTYPE svg PUBLIC "-//W3C//DTD SVG 1.1//EN" "http://www.w3.org/Graphics/SVG/1.1/DTD/svg11.dtd"><svg t="1598884243056" class="icon" viewBox="0 0 1267 1024" version="1.1" xmlns="http://www.w3.org/2000/svg" p-id="13652" xmlns:xlink="http://www.w3.org/1999/xlink" width="39.59375" height="32"><defs><style type="text/css"></style></defs><path d="M97.52381 0h404.870095L633.904762 87.673905 765.415619 0H1170.285714a97.52381 97.52381 0 0 1 97.52381 97.52381v828.95238a97.52381 97.52381 0 0 1-97.52381 97.52381h-397.994666L633.904762 977.871238 495.518476 1024H97.52381a97.52381 97.52381 0 0 1-97.52381-97.52381V97.52381A97.52381 97.52381 0 0 1 90.209524 0.24381L97.52381 0z m375.32038 97.52381H97.52381v828.95238h382.195809l123.367619-41.106285a97.52381 97.52381 0 0 1 61.635048 0l123.367619 41.106285H1170.285714V97.52381h-375.320381l-106.983619 71.289904a97.52381 97.52381 0 0 1-108.202666 0L472.84419 97.52381z" fill="#2CB18D" p-id="13653"></path><path d="M170.666667 304.761905h341.333333a36.571429 36.571429 0 0 0 0-73.142857h-341.333333a36.571429 36.571429 0 0 0 0 73.142857zM170.666667 451.047619h341.333333a36.571429 36.571429 0 0 0 0-73.142857h-341.333333a36.571429 36.571429 0 0 0 0 73.142857zM755.809524 597.333333h341.333333a36.571429 36.571429 0 1 0 0-73.142857h-341.333333a36.571429 36.571429 0 1 0 0 73.142857zM755.809524 743.619048h341.333333a36.571429 36.571429 0 1 0 0-73.142858h-341.333333a36.571429 36.571429 0 1 0 0 73.142858zM170.666667 597.333333h341.333333a36.571429 36.571429 0 1 0 0-73.142857h-341.333333a36.571429 36.571429 0 1 0 0 73.142857zM170.666667 743.619048h195.047619a36.571429 36.571429 0 1 0 0-73.142858h-195.047619a36.571429 36.571429 0 1 0 0 73.142858z" fill="#4D84DB" p-id="13654"></path><path d="M731.428571 243.809524m48.761905 0l292.571429 0q48.761905 0 48.761905 48.761905l0 97.523809q0 48.761905-48.761905 48.761905l-292.571429 0q-48.761905 0-48.761905-48.761905l0-97.523809q0-48.761905 48.761905-48.761905Z" fill="#E01313" p-id="13655"></path></svg>