<?xml version="1.0" standalone="no"?><!DOCTYPE svg PUBLIC "-//W3C//DTD SVG 1.1//EN" "http://www.w3.org/Graphics/SVG/1.1/DTD/svg11.dtd"><svg t="1617106833600" class="icon" viewBox="0 0 2814 1024" version="1.1" xmlns="http://www.w3.org/2000/svg" p-id="3422" xmlns:xlink="http://www.w3.org/1999/xlink" width="175.875" height="64"><defs><style type="text/css"></style></defs><path d="M242.264671 556.265986a191.997524 191.997524 0 0 0-97.206917 37.116088c-76.648486 68.607327-30.817841 194.09694 124.261653 194.09694 90.156048 0 180.193261-59.417431 250.979227-154.00998-100.653128-50.465204-185.936946-86.591002-278.033963-77.24266z" p-id="3423" fill="#1296db"></path><path d="M996.747205 695.104715V164.03172A161.813469 161.813469 0 0 0 837.112375 0h-677.35871A161.813469 161.813469 0 0 0 0.079223 163.992109v695.976171a161.892693 161.892693 0 0 0 159.595219 163.912885h677.35871a161.853081 161.853081 0 0 0 159.63483-164.03172v-6.694364s-259.297667-110.912537-390.214073-175.717148c-87.779351 110.912537-201.028974 178.252292-318.675487 178.252292-198.889946 0-266.427759-178.767243-172.231325-296.532591a199.048393 199.048393 0 0 1 109.644965-63.853932c84.808479-21.390275 219.76527 13.349116 346.205563 56.248501a724.258868 724.258868 0 0 0 56.169278-140.977757H237.867781V370.289428h200.989362V297.522881H195.443735V256.960582h243.453019V153.217748a17.072608 17.072608 0 0 1 17.231055-17.468725h98.236819v121.211559h240.640594v40.601911h-240.640594v72.726935h196.434026a839.766353 839.766353 0 0 1-83.184403 215.883331c59.417431 22.142896 113.130788 43.137055 153.01969 56.842676a1039.488144 1039.488144 0 0 0 176.113264 52.08928z" p-id="3424" fill="#1296db"></path><path d="M2415.516614 160.506286v58.18947h-101.881087V121.092724h191.126068V66.785192h106.634483v54.26792h164.903175a27.728134 27.728134 0 0 1 26.38134 28.282697 1.505242 1.505242 0 0 0 0 0.435728v68.924219h-101.881088V160.506286h-285.203667z m-617.267881-88.73003h97.563421l-65.992959 155.71328h31.689296v401.85989h-87.620904V326.399752h-80.17392z m1016.236123 543.669491h-0.435728l0.435728 1.346795H2313.635527v-39.611621h195.879463v-165.576573h-195.879463v-39.61162h195.879463V294.116282h-195.879463v-39.611621h488.926231v39.611621h-195.879463v77.99528h195.879463v39.611621h-195.879463v165.655797h99.74206l-24.598816-85.600712h84.848091a16.755715 16.755715 0 0 1 15.844648 12.279602l32.006189 111.427488z m-792.232409-334.916251l54.941317 179.876368h-89.759932l-59.100537-191.799466h75.895864a20.360373 20.360373 0 0 1 18.102511 11.883486z m192.076747-204.079069v98.038761h36.997254v39.61162h-36.997254v371.596612a36.482302 36.482302 0 0 1-34.026382 36.561525h-118.042629v-40.918803h46.305985a15.844648 15.844648 0 0 0 14.735522-14.775135v-352.543422h-224.479053v-39.61162h224.518665V76.450427h91.106727zM1645.981664 255.098836a436.638892 436.638892 0 0 1-167.002592 238.699624 1065.156474 1065.156474 0 0 0 200.791304 98.593324v45.592975a922.950756 922.950756 0 0 1-259.337279-104.416232 898.946114 898.946114 0 0 1-262.823101 104.416232v-48.207342a776.387761 776.387761 0 0 0 205.267417-94.59255 515.624463 515.624463 0 0 1-145.216201-159.8725h90.869058a431.172488 431.172488 0 0 0 110.912537 116.616611 345.88867 345.88867 0 0 0 111.665158-156.624348h-338.679355V255.059224h170.013075V190.452671H1161.016595V150.246876h201.464702V87.50207a18.498627 18.498627 0 0 1 17.944064-19.092801h90.472941v81.877219h202.851108V190.531894h-202.851108v64.606553h174.964527z m-287.065413 643.134269H1275.494178l-15.844648 47.058605h-42.424045l83.184402-233.70856h32.441918l83.540907 233.70856h-42.384434l-15.131639-47.058605z m-41.037639-126.361069l-32.481529 96.890023h63.814321z m232.361766-60.209663h40.760357v202.019264h96.493907v31.689296h-137.293876v-233.70856z m286.946578 0h40.799969v233.70856h-40.799969v-233.70856z m294.31434 0a71.974314 71.974314 0 1 1 0 143.829794h-47.533945v89.839155h-40.799969v-233.708561h88.135856z m-2.297474 111.744381a37.432981 37.432981 0 0 0 36.125798-39.809678 38.027156 38.027156 0 0 0-36.125798-40.166184h-45.038413v79.975862z m316.496847 74.865963h-83.422072l-15.844649 47.058605h-42.344822l83.184403-233.708561h32.402306l83.540907 233.708561h-42.424045z m-40.998027-126.361069l-32.481529 96.890023h63.853932z m325.765967-60.209664h44.048121l-68.409268 137.13543-0.23767 0.554563v95.978956h-40.522687v-95.899733l-68.646939-137.650381h44.087734l45.157247 99.544002 44.523462-99.544002z" p-id="3425" fill="#1296db"></path></svg>