<?xml version="1.0" standalone="no"?><!DOCTYPE svg PUBLIC "-//W3C//DTD SVG 1.1//EN" "http://www.w3.org/Graphics/SVG/1.1/DTD/svg11.dtd"><svg t="1617106597268" class="icon" viewBox="0 0 4242 1024" version="1.1" xmlns="http://www.w3.org/2000/svg" p-id="2292" width="265.125" height="64" xmlns:xlink="http://www.w3.org/1999/xlink"><defs><style type="text/css"></style></defs><path d="M3249.745554 229.412571H3017.151269a33.389714 33.389714 0 0 0-32.329143 27.099429l-93.842286 595.419429c-2.084571 11.483429 7.314286 21.942857 18.761143 21.942857h118.857143c11.483429 0 20.882286-8.374857 21.942857-18.797715l27.062857-168.96c2.121143-15.616 15.689143-27.062857 32.365714-27.062857h72.996572c153.270857 0 240.859429-74.057143 263.826285-221.074285 10.422857-63.634286 0-114.724571-29.220571-150.162286-31.268571-38.582857-89.673143-58.404571-167.862857-58.404572z m27.062857 216.868572c-12.470857 83.456-76.068571 83.456-137.618285 83.456h-35.474286l25.051429-155.392a19.090286 19.090286 0 0 1 18.761142-16.676572h15.652572c41.691429 0 81.334857 0 102.180571 23.990858 12.507429 14.592 15.652571 35.474286 11.483429 64.658285z" fill="#009CDE" p-id="2293"></path><path d="M1594.888411 229.412571h-232.594285a33.389714 33.389714 0 0 0-32.292572 27.099429L1236.122697 851.931429c-2.084571 11.483429 7.314286 21.942857 18.761143 21.942857h110.518857a33.389714 33.389714 0 0 0 32.329143-27.136l25.014857-160.585143c2.084571-15.652571 15.652571-27.136 32.329143-27.136h72.996571c153.307429 0 240.896-74.020571 263.826286-221.037714 10.422857-63.634286 0-114.724571-29.184-150.162286-31.305143-38.582857-89.673143-58.404571-167.862857-58.404572z m27.062858 216.868572c-12.507429 83.456-76.105143 83.456-137.618286 83.456h-35.474286l25.051429-155.392a19.090286 19.090286 0 0 1 18.761143-16.676572h15.616c41.728 0 81.371429 0 102.217142 23.990858 12.507429 14.592 15.616 35.474286 11.446858 64.658285z m666.331428-3.108572h-111.542857c-9.398857 0-17.737143 7.314286-18.797714 16.676572l-5.193143 31.305143-7.314286-11.483429c-23.990857-34.377143-77.165714-46.921143-131.401143-46.921143-123.026286 0-227.291429 92.818286-248.173714 223.158857-10.422857 64.658286 4.169143 127.195429 41.691429 171.008 34.450286 39.643429 82.395429 56.32 139.776 56.32 99.035429 0 153.270857-63.634286 153.270857-63.634285l-5.229715 31.305143c-2.084571 11.446857 7.314286 21.906286 18.797715 21.906285h100.096a33.389714 33.389714 0 0 0 32.329143-27.136l60.489142-380.598857a18.834286 18.834286 0 0 0-18.797714-21.906286z m-154.331428 216.868572c-10.422857 63.634286-61.513143 106.422857-125.110858 106.422857-32.329143 0-58.404571-10.459429-75.081142-30.281143-16.676571-19.785143-22.930286-46.921143-17.737143-78.189714 10.422857-62.537143 61.513143-107.410286 124.086857-107.410286 31.305143 0 57.344 10.422857 74.057143 30.244572 17.700571 20.845714 25.014857 47.945143 19.785143 79.250285z" fill="#003087" p-id="2294"></path><path d="M3943.13984 443.172571h-111.542857c-9.398857 0-17.737143 7.314286-18.761143 16.676572l-5.229714 31.305143-7.314286-11.483429c-23.954286-34.377143-77.165714-46.921143-131.364571-46.921143-123.062857 0-227.328 92.818286-248.173715 223.158857-10.422857 64.658286 4.169143 127.195429 41.691429 171.008 34.413714 39.643429 82.395429 56.32 139.739428 56.32 99.072 0 153.307429-63.634286 153.307429-63.634285l-5.229714 31.305143c-2.084571 11.446857 7.314286 21.906286 18.761143 21.906285h100.096a33.389714 33.389714 0 0 0 32.329142-27.136l60.489143-380.598857a18.834286 18.834286 0 0 0-18.761143-21.906286z m-154.331429 216.868572c-10.386286 63.634286-61.476571 106.422857-125.074285 106.422857-32.365714 0-58.404571-10.459429-75.117715-30.281143-16.676571-19.785143-22.930286-46.921143-17.700571-78.189714 10.422857-62.537143 61.513143-107.410286 124.086857-107.410286 31.268571 0 57.344 10.422857 74.020572 30.244572 17.737143 20.845714 25.051429 47.945143 19.821714 79.250285z" fill="#009CDE" p-id="2295"></path><path d="M2880.593554 443.172571h-111.579428a32.768 32.768 0 0 0-27.099429 14.628572l-154.331428 227.291428-65.718858-217.965714a32.548571 32.548571 0 0 0-31.268571-22.893714h-109.494857c-13.531429 0-22.930286 13.531429-18.761143 26.038857l123.026286 360.813714-115.748572 162.669715c-9.362286 12.507429 0 30.244571 15.652572 30.244571h111.579428c10.422857 0 20.845714-5.229714 26.075429-13.531429l371.2-535.990857c11.483429-13.568 2.121143-31.305143-13.531429-31.305143z" fill="#003087" p-id="2296"></path><path d="M4074.577554 245.028571l-94.902857 605.878858c-2.084571 11.446857 7.314286 21.906286 18.761143 21.906285h95.926857a33.389714 33.389714 0 0 0 32.329143-27.136l93.842286-595.382857a18.944 18.944 0 0 0-18.761143-21.942857h-107.410286c-10.422857 1.060571-18.761143 7.314286-19.785143 16.713143zM782.527269 259.657143c12.507429-79.250286 0-133.485714-42.752-182.491429C691.830126 22.930286 606.289554 0 496.831269 0H178.769554c-21.906286 0-41.691429 16.676571-44.836571 38.582857L0.447269 879.067429c-3.108571 16.676571 10.422857 31.268571 27.136 31.268571h196.022857l-13.531429 85.504c-2.121143 14.628571 9.362286 27.099429 23.954286 27.099429h165.814857c19.821714 0 36.498286-14.592 39.606857-33.353143l2.084572-8.338286 31.305142-198.144 2.084572-10.422857a39.387429 39.387429 0 0 1 39.606857-33.353143h25.051429c160.548571 0 285.696-64.658286 322.194285-253.403429 15.652571-79.250286 7.314286-144.932571-33.353143-190.829714a173.860571 173.860571 0 0 0-45.897142-35.474286" fill="#009CDE" p-id="2297"></path><path d="M782.527269 259.657143c12.507429-79.250286 0-133.485714-42.752-182.491429C691.830126 22.930286 606.289554 0 496.831269 0H178.769554c-21.906286 0-41.691429 16.676571-44.836571 38.582857L0.447269 879.067429c-3.108571 16.676571 10.422857 31.268571 27.136 31.268571h196.022857l49.005714-312.832-1.024 9.398857a45.056 45.056 0 0 1 44.836571-38.582857h93.842286c183.515429 0 327.424-74.057143 369.152-289.901714l3.108572-18.761143" fill="#012169" p-id="2298"></path><path d="M326.847269 260.681143a41.325714 41.325714 0 0 1 21.906285-30.244572c5.193143-2.084571 11.446857-4.169143 16.676572-4.169142h250.258285c29.220571 0 57.344 2.084571 82.395429 6.253714 7.314286 1.060571 14.592 2.084571 20.845714 4.205714 7.314286 1.024 13.531429 3.108571 19.821715 5.193143l9.362285 3.145143c12.544 4.169143 23.990857 9.362286 34.413715 14.592 12.507429-79.250286 0-133.485714-42.752-182.491429C691.830126 22.930286 606.289554 0 496.831269 0H178.769554c-21.906286 0-41.691429 16.676571-44.836571 38.582857L0.447269 879.067429c-3.108571 16.676571 10.422857 31.268571 27.136 31.268571h196.022857l49.005714-312.832 54.235429-336.822857z" fill="#003087" p-id="2299"></path></svg>