<?xml version="1.0" standalone="no"?><!DOCTYPE svg PUBLIC "-//W3C//DTD SVG 1.1//EN" "http://www.w3.org/Graphics/SVG/1.1/DTD/svg11.dtd"><svg t="1617106925780" class="icon" viewBox="0 0 2184 1024" version="1.1" xmlns="http://www.w3.org/2000/svg" p-id="6205" xmlns:xlink="http://www.w3.org/1999/xlink" width="136.5" height="64"><defs><style type="text/css"></style></defs><path d="M808.339394 387.749495c25.470707-29.737374 47.579798-64.905051 65.292929-105.632323l22.367677 10.60202c-8.40404 17.842424-16.937374 34.391919-26.246465 49.519192v178.165656h-22.884848v-142.222222c-9.309091 13.575758-19.523232 25.858586-29.737374 36.848485-2.456566-9.050505-5.559596-18.359596-8.791919-27.280808z m1.551515-109.511111c28.444444-28.832323 50.036364-58.569697 64-88.69495l21.333333 11.89495c-20.040404 38.141414-45.89899 72.533333-77.317171 103.175757-1.939394-8.40404-5.042424-17.454545-8.016162-26.375757z m170.925253 132.525252h-44.99394v15.644445c0 40.727273-11.377778 69.559596-34.391919 87.014141-3.878788-6.464646-8.791919-13.575758-15.256566-21.591919 17.842424-11.894949 26.763636-34.391919 26.763637-67.878788v-35.943434h90.375757v58.957576c10.60202-8.921212 22.367677-19.523232 35.555556-31.806061 2.19798 9.69697 3.878788 18.747475 5.947475 26.246465-12.282828 9.69697-26.763636 21.979798-42.408081 36.460606-5.171717 4.654545-9.309091 9.309091-13.575758 13.575757l-17.454545-21.591919c5.947475-5.947475 9.309091-14.480808 9.309091-24.565657v-34.521212h0.129293z m-78.351516-108.735353v-83.135354h21.59192v60.250505h28.056565V192.646465h22.367677v86.109091h28.056566V218.505051h21.591919v94.513131h-21.591919v-10.989899h-100.072728z m6.723233 30.125252h108.088889v23.660606H909.187879v-23.660606z m154.50505-144.290909l22.884849 4.266667c-3.878788 20.816162-8.016162 40.727273-12.670707 59.862626h73.438384v24.565657H1131.183838C1126.4 341.462626 1115.410101 392.791919 1098.472727 430.545455c13.187879 25.470707 30.125253 46.674747 51.329293 64.90505-5.171717 8.921212-9.69697 17.454545-14.480808 26.246465-20.040404-19.523232-36.460606-41.115152-49.519192-65.680808-13.575758 23.660606-31.030303 46.286869-52.622222 68.266666-4.654545-6.464646-10.084848-13.575758-16.549495-21.333333 24.565657-23.272727 43.70101-47.579798 57.276768-72.921212-12.670707-31.418182-20.428283-66.585859-22.884849-105.632323-3.878788 8.921212-7.628283 16.937374-11.377778 25.470707-4.654545-5.947475-9.69697-11.894949-16.161616-17.842425 18.488889-39.692929 32.581818-87.272727 40.210101-144.161616z m43.959596 88.307071H1066.925253l-0.905051 3.490909c0.387879 46.286869 6.852525 87.014141 19.523232 121.664647C1095.369697 373.268687 1102.739394 331.765657 1107.652525 276.169697zM1156.137374 350.90101c33.09899-49.260606 58.181818-103.951515 75.119192-163.684848l26.246464 7.628282c-9.69697 30.513131-20.816162 58.569697-32.323232 84.428283v243.458586h-24.565657v-193.939394c-10.60202 18.230303-21.333333 34.909091-33.098989 50.036364L1156.137374 350.90101z m98.391919-117.527273h110.674747c-6.852525-11.377778-13.963636-23.272727-21.333333-34.909091l22.884849-11.894949c8.016162 12.282828 16.161616 24.953535 24.177777 38.529293l-14.868687 7.628283H1493.591919v23.660606H1254.529293v-23.014142z m18.747475 55.078788h200.274747v22.884849H1273.276768v-22.884849z m0 54.690909h200.274747v22.884849H1273.276768v-22.884849z m3.878788 55.337374h193.422222v124.250505h-26.246465v-20.428283h-140.929293v20.428283h-26.246464v-124.250505z m167.046464 22.755556H1303.40202v57.664646h140.8v-57.664646z m64.387879-186.181819H1662.965657V186.181818h28.056565v48.872727h147.264647v24.565657H1691.022222v50.424242h95.806061v23.660607c-20.428283 44.993939-49.260606 82.747475-86.49697 112.872727 36.848485 20.040404 84.428283 34.391919 142.480808 42.795959-8.016162 11.377778-14.480808 21.333333-19.523232 29.737374-64.387879-12.670707-114.165657-31.030303-148.945455-54.30303-36.848485 22.884848-87.40202 42.79596-151.789899 59.474747-4.654545-10.60202-9.309091-19.523232-14.868687-26.763636 61.543434-13.963636 109.769697-30.513131 144.29091-49.519192-32.711111-28.056566-58.181818-65.680808-76.412122-112.355556h-33.616161v-24.565656h120.888889v-50.812121H1508.589899v-25.212122zM1753.470707 335.127273H1604.137374c16.549495 40.727273 40.339394 72.921212 71.757575 96.323232 35.167677-26.763636 60.89697-58.569697 77.575758-96.323232z m99.167677 13.963636c31.418182-44.088889 57.276768-98.00404 77.70505-162.133333l28.056566 10.60202c-9.309091 25.470707-19.135354 48.872727-28.832323 70.464646v252.379798h-27.151515V321.810101c-12.670707 22.367677-25.470707 42.020202-38.529293 59.474747-4.783838-15.127273-8.145455-25.729293-11.248485-32.193939z m98.909091-84.816162h155.668687V190.060606h27.539394v74.214141H2184.016162v25.858586h-49.260606v171.830303c0 35.29697-16.161616 53.010101-47.967677 53.785859-10.60202 0.387879-27.539394 0-50.812121-0.387879-1.292929-8.921212-2.973737-19.135354-5.559596-30.513131 21.591919 1.680808 38.529293 2.585859 50.424242 2.585858 10.60202 0.387879 17.454545-2.19798 21.333333-6.852525 3.878788-4.266667 5.559596-13.187879 5.559596-26.763636V290.133333H1951.547475v-25.858586z m21.979798 79.773738l22.884848-14.480808c13.963636 20.040404 30.125253 46.286869 48.872727 78.351515l-24.565656 15.256566c-16.161616-30.771717-31.935354-57.406061-47.191919-79.127273zM1081.018182 614.658586l-46.674748 166.658586h-24.953535l-33.616162-120.113132c-1.680808-5.559596-2.585859-10.989899-2.585858-17.454545h-0.387879c-0.387879 5.947475-1.292929 11.377778-2.973737 16.937374l-34.004041 120.50101h-24.953535L862.642424 614.658586h23.660606l34.004041 125.931313c1.680808 5.559596 2.585859 11.377778 2.585858 16.937374h0.905051c0.387879-4.266667 1.680808-10.084848 3.490909-16.937374l35.943434-125.931313h21.333334l34.391919 126.836363c1.292929 4.266667 2.19798 9.309091 2.973737 16.161617h0.387879c0.387879-4.654545 1.292929-10.084848 2.973737-16.549495l32.711111-126.448485h23.014142z m112.872727 112.872727H1110.238384c0.387879 12.670707 3.878788 22.367677 10.60202 29.220202 6.852525 6.852525 15.773737 10.60202 27.539394 10.60202 13.187879 0 25.470707-4.266667 36.848485-12.670707v18.747475c-10.60202 7.111111-24.177778 10.989899-41.50303 10.989899-17.454545 0-30.513131-5.559596-40.339394-16.549495-9.69697-10.989899-14.480808-25.858586-14.480808-45.381818 0-18.230303 5.171717-33.09899 15.773737-44.99394 10.60202-11.894949 23.660606-17.842424 39.434343-17.842424s27.539394 5.171717 36.460606 14.868687c8.791919 9.69697 13.187879 24.177778 13.187879 42.020202v11.119192h0.129293z m-21.20404-16.937374c0-10.60202-2.585859-19.135354-7.628283-24.953535-5.171717-5.947475-12.282828-8.921212-21.333333-8.921212-8.40404 0-15.773737 2.973737-21.59192 9.309091-5.947475 6.464646-10.084848 14.480808-11.377777 24.565656h61.931313z m166.270707 64c-12.282828 6.464646-27.539394 9.69697-46.286869 9.69697-23.660606 0-42.79596-7.628283-57.276768-22.884848-14.480808-15.256566-21.591919-35.29697-21.591919-60.250505 0-26.763636 8.016162-48.355556 24.177778-64.905051 16.161616-16.549495 36.460606-24.565657 61.155556-24.565657 16.161616 0 29.220202 2.19798 39.434343 6.852526v22.367677c-11.894949-6.852525-24.953535-9.69697-39.434343-9.69697-18.747475 0-34.00404 6.464646-45.381819 18.747475S1236.29899 679.175758 1236.29899 699.991919c0 20.040404 5.559596 35.555556 16.549495 47.579798 10.989899 11.894949 24.953535 17.842424 42.795959 17.842424 16.549495 0 31.030303-3.878788 43.313132-10.989899v20.169697z m131.10303 7.369697h-21.333333V713.69697c0-24.177778-8.921212-35.943434-26.763637-35.943435-8.921212 0-16.549495 3.490909-22.884848 10.602021-6.464646 7.111111-8.921212 15.773737-8.921212 26.246464v67.361616h-21.333334V605.349495H1390.157576v76.8h0.387879c8.921212-14.868687 21.979798-22.367677 39.046464-22.367677 26.763636 0 40.210101 16.161616 40.210101 48.872727v73.309091z m38.141414-111.321212c11.894949-7.111111 25.470707-10.989899 41.115152-10.989899 28.832323 0 43.313131 15.256566 43.313131 45.381818v76.8h-20.816162v-18.230303h-0.387878c-8.016162 13.963636-20.428283 21.333333-36.460606 21.333334-11.377778 0-20.816162-2.973737-27.539394-9.309091-6.852525-6.464646-10.084848-14.868687-10.084849-25.470707 0-21.979798 13.187879-35.29697 39.434344-39.046465l35.296969-5.171717c0-19.523232-8.016162-29.220202-24.177778-29.220202-14.480808 0-27.151515 4.654545-39.046464 14.480808v-20.428283h-0.517172v-0.129293z m35.29697 54.820202c-9.69697 1.292929-16.549495 3.878788-20.428283 7.111111-3.878788 3.490909-5.559596 8.40404-5.559596 15.256566 0 5.559596 2.19798 10.084848 5.947475 13.963636 3.878788 3.878788 9.309091 5.559596 16.161616 5.559596 9.309091 0 16.937374-3.490909 22.884849-9.696969 5.947475-6.464646 8.921212-14.480808 8.921212-24.177778v-11.377778l-27.927273 3.361616z m140.8 55.208081c-4.654545 2.585859-10.60202 3.878788-18.747475 3.878788-21.333333 0-31.806061-11.894949-31.80606-35.555556v-68.654545h-20.29899v-17.454546h20.428282v-28.832323L1655.208081 627.070707v35.167677h29.737374v17.454545h-29.737374v64.905051c0 7.628283 1.292929 13.575758 3.878788 16.937374 2.585859 3.490909 7.240404 5.171717 13.187878 5.171717 4.654545 0 8.791919-1.292929 12.282829-3.878788v17.842424h-0.258586z m114.553535-61.155555v62.448484h-21.074747v-166.787878h47.579798c17.842424 0 31.806061 4.266667 42.020202 13.187878 10.084848 8.921212 14.868687 21.333333 14.868687 37.236364 0 16.549495-5.947475 29.737374-17.454546 39.822222-11.377778 10.084848-26.246465 14.868687-43.70101 14.480808h-21.979798v-0.258586h-0.258586z m0-85.721213v66.585859h20.040404c13.187879 0 23.272727-2.973737 30.125253-8.921212 6.852525-5.947475 10.084848-14.480808 10.084848-25.470707 0-21.591919-12.670707-32.323232-38.141414-32.323233h-22.109091z m106.020202 36.848485c11.894949-7.111111 25.470707-10.989899 41.115152-10.989899 28.832323 0 43.313131 15.256566 43.313131 45.381818v76.8h-20.816162v-18.230303h-0.387878c-8.016162 13.963636-20.428283 21.333333-36.460606 21.333334-11.377778 0-20.816162-2.973737-27.539394-9.309091-6.852525-6.464646-10.084848-14.868687-10.084849-25.470707 0-21.979798 13.187879-35.29697 39.434344-39.046465l35.296969-5.171717c0-19.523232-8.016162-29.220202-24.177777-29.220202-14.480808 0-27.151515 4.654545-39.046465 14.480808v-20.428283h-0.517172v-0.129293z m35.167677 54.820202c-9.69697 1.292929-16.549495 3.878788-20.428283 7.111111-3.878788 3.490909-5.559596 8.40404-5.559596 15.256566 0 5.559596 2.19798 10.084848 5.947475 13.963636 3.878788 3.878788 9.309091 5.559596 16.161616 5.559596 9.309091 0 16.937374-3.490909 22.884849-9.696969 5.947475-6.464646 8.791919-14.480808 8.791919-24.177778v-11.377778l-27.79798 3.361616z m180.751515-62.836363l-53.785858 136.921212c-10.084848 25.470707-24.177778 38.141414-42.408081 38.141414-5.171717 0-9.69697-0.387879-13.575758-1.680808v-18.747475c4.266667 1.680808 8.016162 2.585859 11.89495 2.585859 9.69697 0 16.549495-5.559596 21.591919-16.937374l9.309091-21.591919-46.933334-118.820202h23.272728l31.030303 89.6 2.585858 9.696969h0.387879c0.387879-2.19798 1.292929-5.559596 2.585859-9.696969l32.711111-89.987879h21.333333v0.517172z m0 0" fill="#4A4A4A" p-id="6206"></path><path d="M535.531313 837.818182h-419.426262c-63.870707 0-116.105051-52.105051-116.105051-116.105051V302.286869c0-63.870707 52.105051-116.105051 116.105051-116.105051H535.531313c63.870707 0 116.105051 52.105051 116.105051 116.105051v419.426262c0.258586 63.870707-52.234343 116.105051-116.105051 116.105051z m0 0" fill="#59AD4C" p-id="6207"></path><path d="M269.834343 573.414141c-28.315152 17.19596-32.581818-9.438384-32.581818-9.438383l-35.296969-89.858586c-13.834343-42.666667 11.765657-19.135354 11.765656-19.135354s21.850505 17.842424 38.4 28.961616c16.420202 10.731313 35.29697 2.973737 35.29697 2.973738l231.822222-115.717172c-42.666667-57.535354-113.389899-95.159596-193.422222-95.159596-130.715152 0-236.347475 100.20202-236.347475 223.935354 0 71.369697 35.038384 134.593939 89.470707 175.579798l-9.69697 61.284848s-4.654545 17.842424 11.765657 9.438384c11.377778-5.688889 40.339394-25.858586 57.535354-38.4 27.927273 10.472727 57.535354 15.773737 87.40202 15.773737 130.456566 0 236.476768-100.20202 236.476767-224.064646 0-34.650505-8.40404-68.913131-24.565656-99.555556-74.343434 48.226263-245.785859 159.935354-268.024243 173.381818z m0 0" fill="#FFFFFF" p-id="6208"></path></svg>